<svg width="960" height="960" viewBox="0 0 960 960" fill="none" xmlns="http://www.w3.org/2000/svg">
<g clip-path="url(#clip0_38_4075)">
<path fill-rule="evenodd" clip-rule="evenodd" d="M451.864 403.893C446.147 408.359 441.728 414.271 439.064 421.019C435.107 430.467 433.81 441.414 434.135 451.73C434.346 458.631 435.121 465.521 435.894 472.405C437.1 483.141 438.305 493.864 437.371 504.594C434.451 538.146 409.859 567.56 379.151 581.371C348.443 595.182 312.69 594.81 280.243 585.757C257.435 579.398 235.507 568.688 218.359 552.363C201.211 536.038 189.17 513.749 187.693 490.118L187.265 489.577C184.965 490.42 182.721 491.407 180.545 492.531C167.376 499.424 156.935 510.581 150.928 524.178C148.446 529.727 146.812 535.618 146.08 541.653C149.48 567.978 162.001 591.924 180.48 611C199.001 630.132 222.386 644.1 247.036 654.146C285.628 669.862 328.481 676.323 369.485 668.927C410.489 661.531 449.374 639.636 474.109 606.096C501.244 569.297 509.6 522.385 514.944 476.826L515.344 476.871C539.914 596.569 542.485 720.292 527.344 841.534C526.814 845.796 526.34 850.475 528.719 854.06C530.853 857.273 534.596 858.648 538.519 859.325C540.098 859.607 541.71 859.776 543.254 859.9C553.318 860.755 563.51 861.591 573.454 859.855C580.919 858.545 588.327 855.593 594.054 850.745C595.962 849.128 597.669 847.289 599.138 845.266C604.652 837.622 606.162 827.892 607.414 818.557C623.866 695.608 621.593 570.875 600.672 448.607C586.252 452.303 571.274 453.311 556.488 451.583C528.273 448.016 502.351 434.211 483.646 412.789C480.486 409.142 477.567 405.293 474.908 401.267L474.266 401.695C466.733 401.497 459.201 402.163 451.819 403.679L451.864 403.893ZM596.876 460.957C596.749 460.032 595.896 459.384 594.971 459.511C594.046 459.639 593.399 460.492 593.526 461.417C610.52 585.202 610.691 710.717 594.034 834.547C593.91 835.473 594.559 836.324 595.485 836.449C596.41 836.573 597.262 835.924 597.386 834.998C614.083 710.865 613.912 585.044 596.876 460.957Z" fill="#171717"/>
<path fill-rule="evenodd" clip-rule="evenodd" d="M529.889 343.441L530.238 343.126C532.1 340.934 533.773 338.588 535.238 336.113C536.709 333.623 537.516 330.797 537.583 327.906C537.622 326.887 537.413 325.873 536.974 324.952C536.752 324.494 536.427 324.093 536.023 323.782C535.62 323.471 535.15 323.258 534.651 323.159C533.219 322.959 531.9 323.948 530.942 325.031C529.552 326.571 528.489 328.378 527.819 330.341C527.713 330.105 527.609 329.869 527.506 329.633C526.683 327.76 525.878 325.926 524.166 324.794C522.238 323.52 519.217 323.633 517.988 325.594C517.654 326.224 517.475 326.924 517.466 327.637C517.456 328.35 517.616 329.055 517.932 329.694C518.58 330.967 519.429 332.128 520.446 333.133C523.588 336.563 526.735 339.999 529.889 343.441ZM517.228 320.893C519.083 322.305 521.256 323.242 523.557 323.621C525.858 324 528.217 323.811 530.428 323.069C534.853 321.527 538.654 318.582 541.251 314.681C543.817 310.798 545.761 306.538 547.012 302.054C551.077 288.86 552.292 274.953 550.575 261.254L550.586 261.017C551.881 261.107 553.181 261.107 554.476 261.017L554.509 261.445C583.202 273.464 605.266 298.988 613.586 328.978L613.541 328.989C613.101 327.715 611.252 327.061 609.764 326.881C606.903 326.516 604.022 326.332 601.139 326.328C594.595 326.328 588.083 327.242 581.793 329.045L581.703 329.079C588.228 346.328 592.914 364.218 595.683 382.451L595.356 382.699C591.072 383.003 586.795 383.345 582.526 383.725C559.914 385.747 537.419 388.907 515.126 393.195C501.676 379.486 493.626 360.658 496.411 341.763C496.976 340.645 497.265 339.408 497.256 338.155C497.269 336.252 496.614 334.405 495.407 332.935C493.007 330.083 488.992 329.248 485.283 328.955C474.984 328.19 464.683 330.418 455.621 335.37C448.176 339.371 441.705 344.964 436.669 351.751C434.075 340.536 434.085 328.875 436.695 317.664C439.306 306.453 444.449 295.988 451.731 287.072V287.049C460.254 286.361 468.845 285.403 478.124 280.33C485.779 276.136 494.393 268.492 501.901 259.822C502.107 277.116 505.225 294.252 511.123 310.511C512.481 314.343 514.093 318.311 517.228 320.893ZM560.987 307.857C561.806 307.407 562.834 307.707 563.283 308.525C573.805 327.694 581.021 348.499 584.626 370.066C584.78 370.987 584.158 371.859 583.237 372.013C582.315 372.167 581.444 371.545 581.29 370.624C577.748 349.432 570.658 328.988 560.318 310.153C559.869 309.334 560.168 308.306 560.987 307.857ZM561.67 268.023C560.876 267.532 559.834 267.778 559.343 268.572C558.852 269.367 559.098 270.409 559.892 270.9C578.382 282.328 592.734 299.368 600.852 319.532C601.2 320.398 602.185 320.818 603.052 320.469C603.918 320.12 604.338 319.135 603.989 318.269C595.602 297.436 580.774 279.83 561.67 268.023Z" fill="url(#paint0_linear_38_4075)"/>
<path d="M604.3 335.561C603.308 332.46 602.255 329.382 601.143 326.327C604.026 326.331 606.907 326.515 609.768 326.88C611.256 327.06 613.105 327.714 613.545 328.988C613.627 329.223 613.658 329.473 613.635 329.721C613.556 330.848 612.496 331.604 611.527 332.179C609.242 333.56 606.834 334.726 604.334 335.662L604.3 335.561Z" fill="#171717"/>
<path d="M595.357 382.7C594.88 385.396 593.548 387.866 591.557 389.746C589.847 391.423 587.691 392.573 585.345 393.061L582.527 383.726C586.8 383.342 591.077 383 595.357 382.7Z" fill="url(#paint1_linear_38_4075)"/>
<path d="M585.345 393.059L591.298 412.766C570.982 417.795 548.862 415.799 530.798 405.366C525.05 402.032 519.778 397.936 515.127 393.19C537.42 388.902 559.915 385.742 582.527 383.72L585.345 393.059Z" fill="#171717"/>
<path d="M537.578 327.906C537.511 330.797 536.704 333.623 535.233 336.113C533.767 338.588 532.095 340.934 530.233 343.126L529.884 343.441C526.738 340.003 523.588 336.57 520.436 333.141C519.419 332.136 518.57 330.975 517.922 329.702C517.606 329.063 517.446 328.358 517.455 327.645C517.465 326.932 517.644 326.232 517.978 325.602C519.207 323.641 522.217 323.539 524.156 324.802C526.095 326.065 526.862 328.241 527.809 330.349C528.479 328.386 529.542 326.579 530.932 325.039C531.89 323.956 533.209 322.964 534.641 323.167C535.14 323.265 535.61 323.479 536.013 323.79C536.416 324.101 536.742 324.502 536.964 324.96C537.403 325.878 537.614 326.889 537.578 327.906Z" fill="url(#paint2_linear_38_4075)"/>
<path d="M535.255 252.391C538.333 258.017 543.869 260.633 550.588 261.016L550.577 261.253C552.294 274.952 551.08 288.859 547.014 302.053C545.764 306.537 543.82 310.797 541.253 314.68C538.656 318.581 534.856 321.526 530.43 323.068C528.219 323.81 525.861 323.999 523.56 323.62C521.259 323.241 519.086 322.304 517.23 320.892C514.095 318.31 512.483 314.342 511.13 310.509C505.232 294.25 502.114 277.114 501.908 259.82C505.922 255.219 509.585 250.324 512.867 245.175C513.591 247.331 514.772 249.305 516.331 250.961C517.89 252.617 519.789 253.916 521.897 254.769C526.204 256.314 531.92 255.186 534.761 251.612L534.987 251.545C535.063 251.828 535.154 252.109 535.255 252.391Z" fill="url(#paint3_linear_38_4075)"/>
<path d="M474.901 401.267L474.259 401.695C466.726 401.497 459.194 402.163 451.812 403.679C442.139 405.643 432.809 409.024 424.123 413.713C423.997 413.401 423.906 413.076 423.852 412.744C423.503 410.737 424.352 408.753 425.16 406.892C432.714 389.835 439.873 373.521 447.415 356.463V356.263C450.523 356.281 453.611 355.77 456.547 354.752L456.93 354.696C459.486 371.336 465.617 387.224 474.901 401.267V401.267Z" fill="url(#paint4_linear_38_4075)"/>
<path d="M456.933 354.693L456.55 354.749C453.614 355.767 450.526 356.278 447.418 356.26C443.547 356.261 439.8 354.9 436.832 352.416C436.775 352.19 436.719 351.976 436.674 351.75C441.71 344.963 448.181 339.37 455.626 335.369C455.503 341.836 455.94 348.301 456.933 354.693V354.693Z" fill="#171717"/>
<path d="M451.814 403.679L451.859 403.894C446.143 408.36 441.723 414.272 439.059 421.019C436.229 419.339 434.403 419.373 431.167 418.663C428.247 418.02 425.135 416.408 424.121 413.713C432.808 409.023 442.139 405.642 451.814 403.679V403.679Z" fill="url(#paint5_linear_38_4075)"/>
<path d="M535.254 252.391C535.154 252.109 535.062 251.828 534.984 251.546C533.112 245.007 536.551 237.825 541.376 232.932C546.415 227.814 552.864 224.332 558.298 219.64C574.015 206.04 579.392 181.792 570.892 162.829" stroke="#171717" stroke-width="3.382" stroke-linecap="round" stroke-linejoin="round"/>
<path d="M577.149 155.5C575.206 158.054 573.056 160.445 570.723 162.648C558.307 174.291 541.841 180.633 524.823 180.326C521.626 180.249 518.441 179.917 515.297 179.334" stroke="#171717" stroke-width="3.382" stroke-linecap="round" stroke-linejoin="round"/>
<path d="M524.814 180.18C524.814 180.225 524.825 180.28 524.825 180.327C526.798 197.982 525.725 215.527 519.538 232.165C517.762 236.718 515.526 241.077 512.864 245.176C509.582 250.325 505.919 255.22 501.905 259.821C494.396 268.491 485.783 276.135 478.128 280.329C468.849 285.402 460.258 286.36 451.735 287.048C441.825 287.848 432.005 288.266 421.283 294.342C402.32 305.109 397.518 326.609 376.783 333.385C362.939 337.906 339.466 334.524 325.306 337.973C312.442 341.096 301.246 348.831 290.525 356.598C279.804 364.365 268.969 372.439 256.341 376.441C243.713 380.443 228.731 379.632 218.776 370.894" stroke="#171717" stroke-width="3.382" stroke-linecap="round" stroke-linejoin="round"/>
<path d="M217.101 370.15C217.676 370.195 218.24 370.229 218.815 370.263C245.839 371.616 272.108 354.693 285.434 331.051C293.551 316.651 297.407 300.251 304.611 285.379C311.815 270.507 323.89 256.36 340.192 253.665C352.955 251.546 366.506 256.777 378.761 252.665C394.361 247.445 401.422 229.733 405.977 213.938C410.532 198.143 415.932 180.33 430.611 172.911C445.617 165.346 464.659 171.852 479.97 164.952C497.027 157.263 503.352 136.169 517.693 124.152C531.673 112.438 552.519 110.904 569.351 117.928C586.183 124.952 599.126 139.473 607.041 155.9C618.441 179.553 619.668 209.2 605.372 231.222C595.699 246.127 572.181 260.017 554.481 261.022C553.185 261.112 551.886 261.112 550.591 261.022C543.872 260.639 538.336 258.022 535.258 252.397" stroke="#171717" stroke-width="3.382" stroke-linecap="round" stroke-linejoin="round"/>
<path d="M451.735 287.071C444.453 295.987 439.31 306.452 436.699 317.663C434.088 328.874 434.079 340.535 436.673 351.75C436.718 351.976 436.773 352.19 436.831 352.416C436.842 352.449 436.842 352.483 436.853 352.516" stroke="#171717" stroke-width="3.382" stroke-linecap="round" stroke-linejoin="round"/>
<path d="M436.471 352.021L436.671 351.751C441.707 344.963 448.178 339.37 455.623 335.369C464.685 330.417 474.986 328.189 485.285 328.954C488.994 329.247 493.008 330.082 495.409 332.934C496.616 334.404 497.271 336.251 497.258 338.154C497.267 339.407 496.978 340.644 496.413 341.762" stroke="#171717" stroke-width="3.382" stroke-linecap="round" stroke-linejoin="round"/>
<path d="M496.416 341.762C493.631 360.657 501.681 379.485 515.131 393.194C519.782 397.94 525.053 402.036 530.801 405.37C548.862 415.799 570.982 417.795 591.301 412.77C596.03 411.607 600.656 410.061 605.134 408.148C628.618 398.091 647.458 378.824 659.825 356.467C659.904 356.332 659.983 356.185 660.062 356.05" stroke="#171717" stroke-width="3.382" stroke-linecap="round" stroke-linejoin="round"/>
<path d="M455.626 335.155V335.369C455.503 341.836 455.94 348.301 456.933 354.693C459.487 371.333 465.617 387.222 474.901 401.267C477.56 405.294 480.479 409.142 483.639 412.789C502.344 434.211 528.266 448.016 556.481 451.583C571.266 453.312 586.244 452.303 600.665 448.607C622.13 443.083 642.093 432.842 659.101 418.629C679.394 401.797 695.359 380.387 707.636 356.97C712.55 347.564 716.91 337.878 720.692 327.962C721.718 325.279 722.721 322.393 722.056 319.608C721.391 316.823 718.324 314.433 715.686 315.56C713.905 316.327 713.014 318.311 712.292 320.115C712.067 320.668 711.853 321.231 711.627 321.784C707.749 331.513 703.863 341.235 699.97 350.95" stroke="#171717" stroke-width="3.382" stroke-linecap="round" stroke-linejoin="round"/>
<path d="M711.436 322.573C711.504 322.314 711.56 322.054 711.628 321.784C712.355 318.845 712.493 315.791 712.034 312.798C711.391 309.946 708.922 307.274 706.002 307.454C705.012 307.582 704.066 307.941 703.24 308.501C702.414 309.061 701.731 309.807 701.245 310.679C700.402 312.153 699.771 313.74 699.373 315.391C699.283 315.673 699.204 315.966 699.125 316.248C696.354 325.815 692.167 334.912 686.701 343.239" stroke="#171717" stroke-width="3.382" stroke-linecap="round" stroke-linejoin="round"/>
<path d="M699.226 315.346C699.688 310.961 699.97 304.185 697.952 300.273C695.934 296.361 690.465 293.914 686.971 296.573C684.129 298.737 683.96 302.83 683.671 306.381C682.924 315.414 679.844 324.097 674.731 331.581C673.431 333.475 671.54 335.493 669.274 335.144C666.162 334.67 665.474 330.544 665.565 327.387C665.665 323.34 665.779 319.287 665.881 315.234C665.948 312.866 665.847 310.115 663.964 308.672C663.465 308.31 662.89 308.065 662.283 307.956C661.676 307.847 661.052 307.876 660.458 308.041C659.184 308.333 658.042 309.038 657.211 310.047C655.611 312.032 655.159 314.681 654.9 317.206C654.223 323.51 654.166 329.866 654.73 336.181C655.299 343.106 656.934 349.902 659.578 356.328" stroke="#171717" stroke-width="3.382" stroke-linecap="round" stroke-linejoin="round"/>
<path d="M436.74 352.348C436.774 352.371 436.797 352.393 436.831 352.416C439.799 354.9 443.547 356.261 447.417 356.26C450.525 356.278 453.613 355.767 456.549 354.749" stroke="#171717" stroke-width="3.382" stroke-linecap="round" stroke-linejoin="round"/>
<path d="M447.417 356.463C439.875 373.521 432.717 389.835 425.162 406.892C424.35 408.753 423.505 410.737 423.854 412.744C423.908 413.076 423.999 413.401 424.125 413.713C425.139 416.408 428.251 418.02 431.171 418.663C434.407 419.373 436.233 419.339 439.063 421.019L439.131 421.053" stroke="#171717" stroke-width="3.382" stroke-linecap="round" stroke-linejoin="round"/>
<path d="M423.889 413.837C423.965 413.791 424.044 413.75 424.126 413.713C432.811 409.024 442.141 405.642 451.815 403.679C459.197 402.163 466.728 401.497 474.262 401.695" stroke="#171717" stroke-width="3.382" stroke-linecap="round" stroke-linejoin="round"/>
<path d="M514.949 393.228C515.006 393.217 515.073 393.206 515.13 393.194C537.423 388.906 559.919 385.746 582.53 383.724C586.803 383.341 591.08 382.999 595.36 382.698C594.883 385.394 593.551 387.864 591.56 389.744C589.849 391.421 587.693 392.571 585.348 393.059C585.328 393.072 585.305 393.079 585.281 393.082" stroke="#171717" stroke-width="3.382" stroke-linecap="round" stroke-linejoin="round"/>
<path d="M595.685 382.45C592.916 364.217 588.23 346.327 581.705 329.078C579.461 323.148 577 317.304 574.32 311.547" stroke="#171717" stroke-width="3.382" stroke-linecap="round" stroke-linejoin="round"/>
<path d="M581.795 329.044C588.085 327.241 594.597 326.327 601.141 326.327C604.025 326.331 606.905 326.515 609.766 326.88C611.254 327.06 613.103 327.714 613.543 328.988C613.626 329.223 613.656 329.473 613.633 329.721C613.554 330.848 612.494 331.604 611.525 332.179C609.24 333.56 606.832 334.726 604.332 335.662L604.061 335.762C604.422 335.581 604.084 335.683 604.298 335.562C604.321 335.55 604.354 335.528 604.398 335.505" stroke="#171717" stroke-width="3.382" stroke-linecap="round" stroke-linejoin="round"/>
<path d="M600.982 325.888C601.039 326.034 601.082 326.181 601.14 326.327C602.256 329.383 603.309 332.461 604.297 335.561L604.331 335.661C606.845 343.486 608.976 351.445 610.712 359.484C610.802 359.856 610.881 360.239 610.96 360.611" stroke="#171717" stroke-width="3.382" stroke-linecap="round" stroke-linejoin="round"/>
<path d="M603.949 364.479C606.443 363.166 608.724 361.482 610.713 359.485C615.423 354.555 618.839 348.536 620.657 341.965C623.385 332.765 623.802 323.065 624.783 313.509C625.764 303.953 627.41 294.218 632.269 285.943C637.128 277.668 645.855 271.073 655.449 271.151" stroke="#171717" stroke-width="3.382" stroke-linecap="round" stroke-linejoin="round"/>
<path d="M638.277 298.92C639.605 293.25 642.569 288.095 646.801 284.094C648.154 282.82 649.98 281.603 651.739 282.2C652.337 282.447 652.861 282.844 653.261 283.352C653.662 283.859 653.926 284.461 654.027 285.1C654.214 286.381 654.157 287.685 653.858 288.944C652.353 297.244 649.537 305.251 645.515 312.665C645.38 312.936 645.234 313.195 645.087 313.465" stroke="#171717" stroke-width="3.382" stroke-linecap="round" stroke-linejoin="round"/>
<path d="M591.57 389.767C593.37 395.449 600.409 398.11 606.237 396.904C612.065 395.698 616.88 391.638 621.137 387.467C635.884 372.981 647.339 355.489 654.722 336.181C654.79 336.023 654.846 335.876 654.903 335.719" stroke="#171717" stroke-width="3.382" stroke-linecap="round" stroke-linejoin="round"/>
<path d="M648.391 327.083C649.297 324.649 649.508 322.012 649 319.465C648.492 316.918 647.286 314.563 645.516 312.663C645.392 312.528 645.268 312.392 645.133 312.263" stroke="#171717" stroke-width="3.382" stroke-linecap="round" stroke-linejoin="round"/>
<path d="M660.522 308.537C660.5 308.368 660.477 308.198 660.455 308.037C658.764 294.519 657.095 283.515 655.821 271.102C655.494 268.002 655.201 264.823 654.93 261.486C654.536 256.514 655.923 254.721 663.082 253.729C682.203 251.068 696.712 248.554 714.402 247.145" stroke="#171717" stroke-width="3.382" stroke-linecap="round" stroke-linejoin="round"/>
<path d="M714.399 247.149C723.384 245.988 722.989 257.814 723.745 263.665C725.131 274.477 726.526 285.293 727.928 296.112C729.404 307.623 730.885 319.141 732.37 330.668C733.057 335.989 734.692 341.968 734.444 347.368C734.185 353.253 729.134 354.211 724.511 354.797C718.886 355.53 713.26 356.241 707.634 356.973C707.612 356.973 707.589 356.985 707.566 356.985" stroke="#171717" stroke-width="3.382" stroke-linecap="round" stroke-linejoin="round"/>
<path d="M613.61 329.067C613.598 329.033 613.598 329.011 613.587 328.977C605.267 298.987 583.203 273.463 554.51 261.444" stroke="#171717" stroke-width="3.382" stroke-linecap="round" stroke-linejoin="round"/>
<path d="M512.83 245.086C512.841 245.119 512.852 245.142 512.864 245.176C513.588 247.332 514.769 249.306 516.328 250.962C517.887 252.618 519.786 253.917 521.894 254.77C526.201 256.315 531.917 255.187 534.758 251.613" stroke="#171717" stroke-width="3.382" stroke-linecap="round" stroke-linejoin="round"/>
<path d="M501.895 259.291C501.895 259.471 501.895 259.641 501.906 259.821C502.111 277.115 505.229 294.251 511.128 310.51C512.481 314.343 514.093 318.31 517.228 320.893C519.083 322.305 521.256 323.242 523.557 323.621C525.858 324 528.217 323.811 530.428 323.069C534.853 321.527 538.653 318.581 541.251 314.681C543.817 310.798 545.761 306.538 547.012 302.054C551.077 288.86 552.292 274.953 550.574 261.254" stroke="#171717" stroke-width="3.382" stroke-linecap="round" stroke-linejoin="round"/>
<path d="M497.215 338.887C497.238 338.639 497.249 338.402 497.26 338.154C497.969 326.98 496.651 315.769 493.371 305.064" stroke="#171717" stroke-width="3.382" stroke-linecap="round" stroke-linejoin="round"/>
<path d="M527.812 330.341C526.865 328.233 526.087 326.068 524.159 324.794C522.231 323.52 519.21 323.633 517.981 325.594C517.648 326.224 517.469 326.924 517.459 327.637C517.45 328.35 517.609 329.055 517.926 329.694C518.574 330.967 519.423 332.128 520.44 333.133C523.584 336.56 526.734 339.994 529.888 343.433C529.944 343.49 529.987 343.546 530.044 343.603" stroke="#171717" stroke-width="3.382" stroke-linecap="round" stroke-linejoin="round"/>
<path d="M527.812 330.341C528.483 328.378 529.546 326.571 530.935 325.031C531.893 323.948 533.213 322.956 534.645 323.159C535.144 323.257 535.614 323.471 536.017 323.782C536.42 324.093 536.746 324.494 536.968 324.952C537.406 325.873 537.615 326.887 537.576 327.906C537.51 330.797 536.702 333.623 535.231 336.113C533.768 338.588 532.097 340.934 530.237 343.126" stroke="#171717" stroke-width="3.382" stroke-linecap="round" stroke-linejoin="round"/>
<path d="M451.859 403.894C446.143 408.36 441.724 414.272 439.059 421.019C435.102 430.467 433.805 441.414 434.132 451.73C434.673 469.396 438.901 486.984 437.368 504.594C434.448 538.146 409.868 567.561 379.148 581.371C348.428 595.181 312.687 594.81 280.24 585.757C257.432 579.398 235.504 568.688 218.356 552.363C201.208 536.038 189.167 513.749 187.69 490.118" stroke="#171717" stroke-width="3.382" stroke-linecap="round" stroke-linejoin="round"/>
<path d="M146.048 541.889L146.082 541.653C146.814 535.618 148.448 529.727 150.93 524.178C156.936 510.581 167.378 499.424 180.547 492.531C182.723 491.407 184.967 490.42 187.267 489.577" stroke="#171717" stroke-width="3.382" stroke-linecap="round" stroke-linejoin="round"/>
<path d="M146.048 541.427C146.06 541.506 146.071 541.574 146.082 541.653C149.476 567.978 162.001 591.924 180.482 611C199.005 630.132 222.388 644.1 247.044 654.146C285.636 669.862 328.489 676.334 369.493 668.927C410.497 661.52 449.382 639.636 474.117 606.096C501.254 569.296 509.608 522.385 514.952 476.826C515.178 474.977 515.392 473.128 515.595 471.279" stroke="#171717" stroke-width="3.382" stroke-linecap="round" stroke-linejoin="round"/>
<path d="M515.344 476.871C539.91 596.571 542.481 720.292 527.344 841.534C526.814 845.796 526.344 850.475 528.719 854.06C530.85 857.273 534.593 858.648 538.519 859.325C540.098 859.607 541.71 859.776 543.254 859.9C553.322 860.757 563.514 861.591 573.454 859.855C580.917 858.547 588.325 855.593 594.054 850.745C595.961 849.128 597.668 847.289 599.138 845.266C604.652 837.622 606.162 827.892 607.414 818.557C623.866 695.608 621.593 570.875 600.672 448.607C600.672 448.584 600.661 448.55 600.661 448.528" stroke="#171717" stroke-width="3.382" stroke-linecap="round" stroke-linejoin="round"/>
<path d="M180.377 492.2C176.895 485.476 173.03 478.958 168.8 472.677C167.48 470.727 165.913 468.652 163.613 468.145C162.602 468.004 161.572 468.087 160.597 468.387C159.621 468.687 158.723 469.197 157.965 469.881C156.794 470.761 155.839 471.897 155.173 473.202C154.506 474.507 154.147 475.947 154.121 477.412C154.14 478.879 154.644 480.299 155.553 481.451C156.462 482.603 157.726 483.422 159.149 483.782" stroke="#171717" stroke-width="3.382" stroke-linecap="round" stroke-linejoin="round"/>
<path d="M150.782 524.11C135.1 516.263 114.311 520.57 103.025 533.986C105.787 521.134 113.86 509.786 124.125 501.573C134.39 493.36 146.719 488.089 159.38 484.605C159.391 484.605 159.413 484.594 159.425 484.594" stroke="#171717" stroke-width="3.382" stroke-linecap="round" stroke-linejoin="round"/>
<path d="M538.536 859.156C538.525 859.212 538.525 859.268 538.513 859.325C536.946 871.681 535.375 884.041 533.801 896.406C533.437 898.303 533.453 900.253 533.846 902.144C534.294 903.594 535.164 904.878 536.344 905.831C537.525 906.785 538.963 907.366 540.475 907.499C541.992 907.58 543.502 907.234 544.833 906.5C546.164 905.767 547.263 904.676 548.006 903.35C548.902 901.45 549.422 899.394 549.539 897.296C550.405 890.103 551.274 882.914 552.144 875.729C551.603 886.202 557.792 896.315 566.462 902.212C575.132 908.109 585.944 910.212 596.429 910.036C606.914 909.86 617.241 907.511 627.466 905.188C628.695 905 629.871 904.554 630.916 903.88C631.429 903.535 631.824 903.041 632.048 902.465C632.272 901.888 632.314 901.257 632.168 900.656C631.751 899.45 630.443 898.863 629.282 898.356C619.814 894.114 611.599 887.505 605.428 879.166C599.257 870.827 595.339 861.039 594.05 850.745L594.016 850.43" stroke="#171717" stroke-width="3.382" stroke-linecap="round" stroke-linejoin="round"/>
<path d="M541.15 184.814C540.824 184.143 540.354 183.553 539.775 183.083C539.196 182.613 538.521 182.276 537.798 182.096C537.075 181.915 536.321 181.895 535.589 182.038C534.857 182.18 534.165 182.481 533.562 182.92" stroke="#171717" stroke-width="3.382" stroke-linecap="round" stroke-linejoin="round"/>
<path d="M563.958 186.4C563.024 185.166 561.708 184.276 560.215 183.869C558.722 183.461 557.137 183.558 555.705 184.145" stroke="#171717" stroke-width="3.382" stroke-linecap="round" stroke-linejoin="round"/>
<path d="M568.614 179.323C567.656 177.874 566.264 176.765 564.638 176.156C563.012 175.546 561.235 175.467 559.561 175.93" stroke="#171717" stroke-width="3.382" stroke-linecap="round" stroke-linejoin="round"/>
<path d="M548.817 192.435C548.364 193.504 548.253 194.687 548.499 195.821C548.745 196.956 549.337 197.986 550.192 198.771C550.918 199.291 551.611 199.856 552.267 200.462C552.588 200.772 552.801 201.178 552.874 201.618C552.947 202.059 552.877 202.511 552.673 202.909C552.435 203.196 552.118 203.407 551.761 203.515C551.404 203.624 551.023 203.625 550.666 203.518C549.952 203.295 549.291 202.926 548.727 202.435" stroke="#171717" stroke-width="3.382" stroke-linecap="round" stroke-linejoin="round"/>
<path d="M542.501 217.182C541.519 217.599 540.451 217.771 539.387 217.682C538.324 217.594 537.299 217.248 536.399 216.674C535.5 216.1 534.754 215.315 534.226 214.388C533.698 213.461 533.404 212.419 533.369 211.353" stroke="#171717" stroke-width="3.382" stroke-linecap="round" stroke-linejoin="round"/>
<path d="M582.504 383.645L582.527 383.724L585.345 393.059L591.298 412.766L591.456 413.296" stroke="#171717" stroke-width="3.382" stroke-linecap="round" stroke-linejoin="round"/>
<path d="M700.01 110.271C700.277 110.996 700.346 111.779 700.21 112.539C700.063 113.043 699.783 113.498 699.4 113.856C699.016 114.214 698.543 114.463 698.031 114.575C697.351 114.695 696.653 114.651 695.994 114.444C695.336 114.238 694.737 113.877 694.248 113.39C693.279 112.404 692.554 111.206 692.132 109.89C691.384 107.624 690.851 105.292 690.54 102.926C690.231 101.026 689.935 99.02 690.647 97.232C690.903 96.5841 691.318 96.0108 691.854 95.565C692.389 95.1191 693.028 94.8148 693.712 94.68C694.938 94.508 695.412 95.345 695.707 96.358C695.889 96.967 696 97.639 696.178 98.189C697.408 102.075 698.641 105.958 699.878 109.839C699.922 109.982 699.966 110.125 700.01 110.271Z" fill="#171717"/>
<path d="M700.4 110.177C704.788 109.813 709.075 108.664 713.057 106.785C714.993 105.869 716.97 104.657 717.833 102.695C718.778 100.549 718.164 98.0819 718.186 95.7359C718.216 92.8879 719.213 90.0659 718.832 87.2479C718.795 86.5335 718.576 85.8404 718.196 85.2344C717.816 84.6283 717.287 84.1294 716.66 83.7849C715.271 83.2099 713.696 83.8749 712.394 84.6219C710.148 85.9397 708.006 87.426 705.984 89.0679" stroke="#171717" stroke-width="3.382" stroke-linecap="round" stroke-linejoin="round"/>
<path d="M695.709 96.358C695.891 96.967 696.002 97.639 696.18 98.189C697.41 102.075 698.643 105.959 699.88 109.84C699.924 109.983 699.968 110.125 700.012 110.273C700.279 110.997 700.348 111.78 700.212 112.54C700.065 113.044 699.785 113.499 699.402 113.857C699.018 114.216 698.545 114.464 698.033 114.576C697.353 114.696 696.655 114.652 695.996 114.445C695.338 114.239 694.739 113.878 694.25 113.391C693.281 112.405 692.556 111.207 692.134 109.891C691.386 107.625 690.853 105.293 690.542 102.927C690.233 101.027 689.937 99.021 690.649 97.233C690.905 96.585 691.32 96.0118 691.855 95.5659C692.391 95.1201 693.03 94.8158 693.714 94.681C694.94 94.507 695.414 95.344 695.709 96.358Z" stroke="#171717" stroke-width="3.382" stroke-linecap="round" stroke-linejoin="round"/>
<path d="M695.725 96.3519C696.6 95.6776 697.193 94.7021 697.39 93.6149C697.577 92.5357 697.644 91.439 697.59 90.345C697.478 87.147 697.888 83.9522 698.804 80.886C698.945 80.3173 699.257 79.8056 699.698 79.4199C700.019 79.2167 700.394 79.1136 700.775 79.1237C701.155 79.1339 701.524 79.2568 701.835 79.4769C702.448 79.935 702.891 80.5841 703.095 81.3219C703.297 82.0525 703.454 82.7949 703.565 83.5449C704.057 85.5084 704.824 87.3922 705.846 89.1399C706.237 89.8432 706.675 90.5194 707.157 91.164" stroke="#171717" stroke-width="3.382" stroke-linecap="round" stroke-linejoin="round"/>
<path d="M709.085 214.725C709.005 215.969 708.594 217.169 707.893 218.199C707.345 218.844 706.634 219.33 705.834 219.604C705.033 219.879 704.174 219.932 703.346 219.759C702.264 219.493 701.264 218.969 700.429 218.232C699.594 217.496 698.95 216.568 698.552 215.528C697.77 213.442 697.49 211.201 697.734 208.987C698.121 205.154 698.869 201.366 699.968 197.674C700.76 194.674 701.644 191.521 703.868 189.362C704.669 188.574 705.657 188.001 706.739 187.696C707.821 187.391 708.962 187.365 710.058 187.618C711.978 188.169 712.127 189.718 711.897 191.395C711.765 192.41 711.488 193.474 711.386 194.407C710.646 200.935 709.91 207.468 709.178 214.007C709.146 214.241 709.122 214.482 709.085 214.725Z" fill="#171717"/>
<path d="M709.713 214.838C716.418 217.184 723.489 218.307 730.591 218.154C734.046 218.075 737.755 217.589 740.315 215.267C743.115 212.732 743.836 208.688 745.409 205.245C747.323 201.076 750.645 197.573 751.939 193.166C752.593 190.966 752.594 188.313 751.015 186.643C749.347 184.876 746.588 184.829 744.18 185.071C740.006 185.537 735.873 186.317 731.817 187.404" stroke="#171717" stroke-width="3.382" stroke-linecap="round" stroke-linejoin="round"/>
<path d="M711.894 191.394C711.762 192.409 711.485 193.472 711.384 194.406C710.644 200.934 709.907 207.465 709.175 214C709.146 214.24 709.122 214.481 709.085 214.724C709.005 215.968 708.594 217.168 707.893 218.198C707.345 218.843 706.634 219.328 705.833 219.603C705.033 219.877 704.174 219.931 703.346 219.758C702.265 219.492 701.264 218.968 700.429 218.231C699.595 217.494 698.95 216.566 698.552 215.527C697.77 213.441 697.49 211.2 697.734 208.986C698.121 205.153 698.869 201.366 699.968 197.673C700.76 194.673 701.644 191.52 703.868 189.361C704.669 188.573 705.657 188 706.739 187.695C707.822 187.39 708.963 187.363 710.059 187.617C711.975 188.168 712.123 189.714 711.894 191.394Z" stroke="#171717" stroke-width="3.382" stroke-linecap="round" stroke-linejoin="round"/>
<path d="M711.922 191.4C713.655 190.983 715.172 189.936 716.175 188.462C717.16 186.996 717.982 185.425 718.625 183.78C720.562 178.996 723.264 174.559 726.625 170.642C727.208 169.897 728.004 169.348 728.907 169.068C729.515 168.982 730.135 169.079 730.688 169.346C731.241 169.613 731.703 170.038 732.014 170.568C732.62 171.642 732.849 172.888 732.662 174.107C732.479 175.316 732.222 176.513 731.894 177.691C731.326 180.909 731.219 184.192 731.574 187.44C731.686 188.733 731.886 190.017 732.174 191.283" stroke="#171717" stroke-width="3.382" stroke-linecap="round" stroke-linejoin="round"/>
<path d="M678.775 136.04C678.169 132.156 676.375 127.692 672.517 126.94C669.317 126.319 666.168 128.784 664.887 131.779C663.606 134.774 663.74 138.161 663.897 141.414C659.306 140.135 654.413 138.935 649.839 140.273C645.265 141.611 641.377 146.473 642.847 151.011C644.047 154.696 648.024 156.602 651.657 157.947C656.592 159.773 672.233 167.14 676.719 162.902C681.228 158.641 679.642 141.589 678.775 136.04Z" fill="url(#paint6_linear_38_4075)"/>
<path d="M421.74 138.812L445.615 125.283" stroke="#171717" stroke-width="3.382" stroke-linecap="round" stroke-linejoin="round"/>
<path d="M426.516 121.304L439.25 141.2" stroke="#171717" stroke-width="3.382" stroke-linecap="round" stroke-linejoin="round"/>
<path d="M483.324 62.981L481.684 74.08L489.897 81.724L478.833 83.594L474.102 93.767L468.905 83.823L457.768 82.467L465.619 74.452L463.467 63.44L473.517 68.431L483.324 62.981Z" fill="#171717"/>
<path d="M699.869 41.49C701.283 39.553 702.435 36.852 701.094 34.864C699.982 33.216 697.559 32.92 695.714 33.664C693.924 34.5462 692.357 35.8216 691.13 37.395C689.7 34.861 688.107 32.232 685.556 30.836C683.005 29.44 679.227 29.861 677.906 32.452C676.832 34.558 677.727 37.098 678.714 39.252C680.056 42.17 683.625 52.097 687.39 52.204C691.176 52.3 697.849 44.259 699.869 41.49Z" fill="url(#paint7_linear_38_4075)"/>
<path d="M259.863 686.528C313.242 705.389 374.833 699.428 423.604 670.682" stroke="#171717" stroke-width="3.382" stroke-linecap="round" stroke-linejoin="round"/>
<path d="M386.424 228.711C386.569 236.147 379.876 242.234 372.724 244.269C365.572 246.304 357.964 245.342 350.533 244.998C332.203 244.151 312.133 248.088 300.19 262.018C291.262 272.432 288.397 286.533 284.428 299.664C280.459 312.795 274.093 326.618 261.689 332.474" stroke="#171717" stroke-width="3.382" stroke-linecap="round" stroke-linejoin="round"/>
<path d="M182.52 462.527C180.045 460.076 177.095 458.155 173.851 456.882C170.608 455.609 167.139 455.011 163.657 455.124C160.174 455.237 156.752 456.059 153.598 457.54C150.444 459.021 147.625 461.129 145.313 463.736" stroke="#171717" stroke-width="3.382" stroke-linecap="round" stroke-linejoin="round"/>
<path d="M172.83 447.305C170.866 446.285 168.689 445.743 166.476 445.722C164.263 445.701 162.076 446.201 160.093 447.183" stroke="#171717" stroke-width="3.382" stroke-linecap="round" stroke-linejoin="round"/>
<path d="M740.014 258.374L803.681 230.256" stroke="#171717" stroke-width="3.382" stroke-linecap="round" stroke-linejoin="round"/>
<path d="M733.648 245.641L745.32 228.664" stroke="#171717" stroke-width="3.382" stroke-linecap="round" stroke-linejoin="round"/>
<path d="M742.137 272.168L759.645 278.535" stroke="#171717" stroke-width="3.382" stroke-linecap="round" stroke-linejoin="round"/>
<path d="M741.076 282.78L789.356 325.755" stroke="#171717" stroke-width="3.382" stroke-linecap="round" stroke-linejoin="round"/>
<path d="M472.618 455.208L466.252 470.594L457.762 454.147L472.618 455.208Z" stroke="url(#paint8_linear_38_4075)" stroke-width="3.382" stroke-linecap="round" stroke-linejoin="round"/>
<path d="M499.941 496.591L482.963 492.346L475.006 507.732L499.941 496.591Z" stroke="url(#paint9_linear_38_4075)" stroke-width="3.382" stroke-linecap="round" stroke-linejoin="round"/>
<path d="M566.261 472.982L550.875 490.489L574.22 491.55L566.261 472.982Z" stroke="url(#paint10_linear_38_4075)" stroke-width="3.382" stroke-linecap="round" stroke-linejoin="round"/>
<path d="M589.606 571.133L568.914 557.869L572.097 579.622L589.606 571.133Z" stroke="url(#paint11_linear_38_4075)" stroke-width="3.382" stroke-linecap="round" stroke-linejoin="round"/>
<path d="M568.913 625.779L554.588 633.738L567.851 643.818L568.913 625.779Z" stroke="url(#paint12_linear_38_4075)" stroke-width="3.382" stroke-linecap="round" stroke-linejoin="round"/>
<path d="M603.399 692.628L583.238 696.342L596.501 711.198L603.399 692.628Z" stroke="url(#paint13_linear_38_4075)" stroke-width="3.382" stroke-linecap="round" stroke-linejoin="round"/>
<path d="M444.499 558.134L448.743 578.296L423.277 568.215L444.499 558.134Z" stroke="url(#paint14_linear_38_4075)" stroke-width="3.382" stroke-linecap="round" stroke-linejoin="round"/>
<path d="M376.059 593.416L395.159 593.947L382.956 606.68L376.059 593.416Z" stroke="url(#paint15_linear_38_4075)" stroke-width="3.382" stroke-linecap="round" stroke-linejoin="round"/>
<path d="M341.574 629.228L350.062 641.961H328.84L341.574 629.228Z" stroke="url(#paint16_linear_38_4075)" stroke-width="3.382" stroke-linecap="round" stroke-linejoin="round"/>
<path d="M250.318 606.945L272.601 622.331L256.684 639.839L250.318 606.945Z" stroke="url(#paint17_linear_38_4075)" stroke-width="3.382" stroke-linecap="round" stroke-linejoin="round"/>
<path d="M200.182 578.296L216.098 569.806L200.182 558.134V578.296Z" stroke="url(#paint18_linear_38_4075)" stroke-width="3.382" stroke-linecap="round" stroke-linejoin="round"/>
<path d="M575.199 735.302L558.838 736.228L566.389 751.078L575.199 735.302Z" stroke="url(#paint19_linear_38_4075)" stroke-width="3.382" stroke-linecap="round" stroke-linejoin="round"/>
<path d="M577.131 810.497L557.365 805.061L562.836 824.209L577.131 810.497Z" stroke="url(#paint20_linear_38_4075)" stroke-width="3.382" stroke-linecap="round" stroke-linejoin="round"/>
<path fill-rule="evenodd" clip-rule="evenodd" d="M524.822 180.327C541.84 180.634 558.307 174.292 570.722 162.649L570.888 162.835C579.388 181.798 574.011 206.046 558.294 219.646C555.998 221.629 553.52 223.396 551.043 225.162C547.661 227.574 544.282 229.983 541.372 232.938C536.547 237.831 533.108 245.013 534.979 251.552C535.058 251.834 535.15 252.115 535.25 252.397C538.328 258.022 543.863 260.639 550.583 261.022C551.878 261.112 553.178 261.112 554.472 261.022C572.173 260.017 595.691 246.127 605.364 231.222C619.66 209.2 618.433 179.553 607.033 155.9C599.118 139.473 586.175 124.952 569.343 117.928C552.511 110.904 531.665 112.438 517.685 124.152C511.709 129.16 507.125 135.743 502.576 142.277C496.209 151.421 489.911 160.467 479.961 164.952C472.492 168.318 464.135 168.494 455.792 168.669C447.033 168.853 438.289 169.037 430.603 172.911C415.924 180.33 410.524 198.143 405.969 213.938C401.414 229.733 394.353 247.445 378.753 252.665C371.903 254.964 364.647 254.343 357.35 253.718C351.594 253.225 345.813 252.73 340.184 253.665C323.882 256.36 311.807 270.507 304.603 285.379C301.441 291.908 298.924 298.731 296.408 305.55C293.193 314.265 289.98 322.972 285.426 331.051C272.1 354.693 245.831 371.616 218.807 370.263L218.773 370.894C228.728 379.632 243.711 380.443 256.338 376.441C268.461 372.599 278.932 365.004 289.236 357.53C289.665 357.219 290.094 356.908 290.522 356.598C301.243 348.831 312.439 341.096 325.302 337.973C331.875 336.372 340.454 336.243 349.146 336.112C359.179 335.961 369.362 335.807 376.78 333.385C388.17 329.663 394.752 321.499 401.515 313.111C407.063 306.228 412.734 299.195 421.28 294.342C431.328 288.648 440.584 287.923 449.864 287.196C450.486 287.147 451.109 287.098 451.732 287.048C460.255 286.36 468.846 285.402 478.125 280.329C485.78 276.135 494.393 268.491 501.902 259.821C505.916 255.22 509.579 250.325 512.86 245.176C515.523 241.077 517.759 236.718 519.535 232.165C525.722 215.527 526.795 197.982 524.822 180.327ZM578.243 127.654C577.486 127.106 576.429 127.275 575.881 128.031C575.333 128.787 575.501 129.844 576.257 130.392C603.478 150.127 614.947 189.061 602.774 220.397C602.436 221.267 602.867 222.247 603.738 222.585C604.608 222.924 605.588 222.492 605.926 221.622C618.657 188.853 606.708 148.291 578.243 127.654Z" fill="#171717"/>
<g opacity="0.1">
<path d="M457.711 283.81C452.079 284.787 448.111 288.81 444.357 292.833C440.248 297.239 437.514 302.468 435.252 307.999C430.808 318.864 430.189 330.579 432.127 342.064C432.962 347.01 439.064 349.777 443.544 348.546C448.725 347.122 450.944 342.075 450.027 337.129C448.51 328.913 449.727 320.572 452.435 312.736C453.86 309.05 455.53 305.464 457.435 302.001C459.527 297.845 462.504 294.585 463.942 290.037C465.205 286.047 461.286 283.19 457.715 283.81H457.711Z" fill="#171717"/>
</g>
<g opacity="0.1">
<path d="M451.983 354.934C444.383 359.772 438.89 370.207 435.196 378.221C431.01 387.283 427.798 396.764 425.615 406.505C424.631 410.931 426.915 416.242 431.737 417.288C432.508 417.432 433.286 417.536 434.067 417.601C437.681 418.001 441.754 414.61 442.52 411.165C444.41 402.419 446.99 393.838 450.236 385.5C451.785 381.578 453.401 377.7 455.026 373.817C456.726 369.746 459.245 365.394 459.902 361.017C460.545 356.743 456.349 352.151 451.983 354.929V354.934Z" fill="#171717"/>
</g>
<g opacity="0.1">
<path d="M460.114 334.855C459.056 340.629 457.78 346.317 457.805 352.219C457.833 358.403 459.259 364.758 460.959 370.686C464.222 382.172 469.462 393.001 476.445 402.686C491.272 423.117 512.509 437.999 536.773 444.964C562.204 452.105 589.916 450.687 614.914 442.471C627.508 438.368 639.496 432.599 650.56 425.317C661.342 418.166 670.354 409.18 679.006 399.648C688.592 389.087 696.371 376.86 703.071 364.316C709.725 351.856 713.719 338.23 717.993 324.848C719.116 321.331 713.872 320.067 712.569 323.348C708.2 334.358 701.969 344.482 695.441 354.348C689.085 363.953 682.381 373.391 674.227 381.543C666.113 389.654 658.446 397.355 648.963 403.955C639.619 410.455 630.044 416.555 619.501 420.955C578.101 438.244 528.037 433.195 497.001 398.826C489.486 390.609 483.426 381.171 479.08 370.918C476.914 365.551 475.253 359.993 474.117 354.318C472.874 348.347 470.917 342.366 470.607 336.257C470.319 330.57 461.253 328.603 460.107 334.836L460.114 334.855Z" fill="#171717"/>
</g>
<g opacity="0.1">
<path d="M599.13 396.6C603.992 398.4 609.003 395.1 613.143 392.736C617.356 390.31 621.351 387.524 625.084 384.408C632.36 378.376 638.239 370.348 642.896 362.167C645.126 358.209 647.042 354.081 648.625 349.822C650.448 344.98 650.488 339.735 651.376 334.665C653.364 323.307 653.234 311.94 657.762 301.034C659.217 297.534 653.202 294.972 651.593 298.434C647.364 307.534 645.37 317.228 642.77 326.823C641.434 331.754 640.827 336.2 638.401 340.7C636.29 344.615 634.978 348.9 632.779 352.8C628.561 360.023 623.12 366.457 616.699 371.816C613.463 374.692 609.99 377.289 606.318 379.581C602.591 381.86 597.287 383.327 595.463 387.581C593.814 391.427 595.079 395.098 599.13 396.594V396.6Z" fill="#171717"/>
</g>
</g>
<defs>
<linearGradient id="paint0_linear_38_4075" x1="524.158" y1="259.822" x2="524.158" y2="393.195" gradientUnits="userSpaceOnUse">
<stop stop-color="#FFB800"/>
<stop offset="1" stop-color="#FF7F0A"/>
</linearGradient>
<linearGradient id="paint1_linear_38_4075" x1="588.942" y1="382.7" x2="588.942" y2="393.061" gradientUnits="userSpaceOnUse">
<stop stop-color="#FFB800"/>
<stop offset="1" stop-color="#FF7F0A"/>
</linearGradient>
<linearGradient id="paint2_linear_38_4075" x1="527.518" y1="323.14" x2="527.518" y2="343.441" gradientUnits="userSpaceOnUse">
<stop stop-color="#FFB800"/>
<stop offset="1" stop-color="#FF7F0A"/>
</linearGradient>
<linearGradient id="paint3_linear_38_4075" x1="526.621" y1="245.175" x2="526.621" y2="323.81" gradientUnits="userSpaceOnUse">
<stop stop-color="#FFB800"/>
<stop offset="1" stop-color="#FF7F0A"/>
</linearGradient>
<linearGradient id="paint4_linear_38_4075" x1="449.336" y1="354.696" x2="449.336" y2="413.713" gradientUnits="userSpaceOnUse">
<stop stop-color="#FFB800"/>
<stop offset="1" stop-color="#FF7F0A"/>
</linearGradient>
<linearGradient id="paint5_linear_38_4075" x1="437.99" y1="403.679" x2="437.99" y2="421.019" gradientUnits="userSpaceOnUse">
<stop stop-color="#FFB800"/>
<stop offset="1" stop-color="#FF7F0A"/>
</linearGradient>
<linearGradient id="paint6_linear_38_4075" x1="661.149" y1="126.844" x2="661.149" y2="164.197" gradientUnits="userSpaceOnUse">
<stop stop-color="#FFB800"/>
<stop offset="1" stop-color="#FF7F0A"/>
</linearGradient>
<linearGradient id="paint7_linear_38_4075" x1="689.553" y1="30.0505" x2="689.553" y2="52.2048" gradientUnits="userSpaceOnUse">
<stop stop-color="#FFB800"/>
<stop offset="1" stop-color="#FF7F0A"/>
</linearGradient>
<linearGradient id="paint8_linear_38_4075" x1="465.19" y1="454.147" x2="465.19" y2="470.594" gradientUnits="userSpaceOnUse">
<stop stop-color="#FFB800"/>
<stop offset="1" stop-color="#FF7F0A"/>
</linearGradient>
<linearGradient id="paint9_linear_38_4075" x1="487.473" y1="492.346" x2="487.473" y2="507.732" gradientUnits="userSpaceOnUse">
<stop stop-color="#FFB800"/>
<stop offset="1" stop-color="#FF7F0A"/>
</linearGradient>
<linearGradient id="paint10_linear_38_4075" x1="562.547" y1="472.982" x2="562.547" y2="491.55" gradientUnits="userSpaceOnUse">
<stop stop-color="#FFB800"/>
<stop offset="1" stop-color="#FF7F0A"/>
</linearGradient>
<linearGradient id="paint11_linear_38_4075" x1="579.26" y1="557.869" x2="579.26" y2="579.622" gradientUnits="userSpaceOnUse">
<stop stop-color="#FFB800"/>
<stop offset="1" stop-color="#FF7F0A"/>
</linearGradient>
<linearGradient id="paint12_linear_38_4075" x1="561.75" y1="625.779" x2="561.75" y2="643.818" gradientUnits="userSpaceOnUse">
<stop stop-color="#FFB800"/>
<stop offset="1" stop-color="#FF7F0A"/>
</linearGradient>
<linearGradient id="paint13_linear_38_4075" x1="593.319" y1="692.628" x2="593.319" y2="711.198" gradientUnits="userSpaceOnUse">
<stop stop-color="#FFB800"/>
<stop offset="1" stop-color="#FF7F0A"/>
</linearGradient>
<linearGradient id="paint14_linear_38_4075" x1="436.01" y1="558.134" x2="436.01" y2="578.296" gradientUnits="userSpaceOnUse">
<stop stop-color="#FFB800"/>
<stop offset="1" stop-color="#FF7F0A"/>
</linearGradient>
<linearGradient id="paint15_linear_38_4075" x1="385.609" y1="593.416" x2="385.609" y2="606.68" gradientUnits="userSpaceOnUse">
<stop stop-color="#FFB800"/>
<stop offset="1" stop-color="#FF7F0A"/>
</linearGradient>
<linearGradient id="paint16_linear_38_4075" x1="339.451" y1="629.228" x2="339.451" y2="641.961" gradientUnits="userSpaceOnUse">
<stop stop-color="#FFB800"/>
<stop offset="1" stop-color="#FF7F0A"/>
</linearGradient>
<linearGradient id="paint17_linear_38_4075" x1="261.46" y1="606.945" x2="261.46" y2="639.839" gradientUnits="userSpaceOnUse">
<stop stop-color="#FFB800"/>
<stop offset="1" stop-color="#FF7F0A"/>
</linearGradient>
<linearGradient id="paint18_linear_38_4075" x1="208.14" y1="558.134" x2="208.14" y2="578.296" gradientUnits="userSpaceOnUse">
<stop stop-color="#FFB800"/>
<stop offset="1" stop-color="#FF7F0A"/>
</linearGradient>
<linearGradient id="paint19_linear_38_4075" x1="567.018" y1="735.302" x2="567.018" y2="751.078" gradientUnits="userSpaceOnUse">
<stop stop-color="#FFB800"/>
<stop offset="1" stop-color="#FF7F0A"/>
</linearGradient>
<linearGradient id="paint20_linear_38_4075" x1="567.248" y1="805.061" x2="567.248" y2="824.209" gradientUnits="userSpaceOnUse">
<stop stop-color="#FFB800"/>
<stop offset="1" stop-color="#FF7F0A"/>
</linearGradient>
<clipPath id="clip0_38_4075">
<rect width="960" height="960" fill="white"/>
</clipPath>
</defs>
</svg>
